<?xml version="1.0" encoding="UTF-8"?>
<!DOCTYPE svg PUBLIC "-//W3C//DTD SVG 1.1//EN" "http://www.w3.org/Graphics/SVG/1.1/DTD/svg11.dtd">
<svg xmlns="http://www.w3.org/2000/svg" xml:space="preserve" width="30px" height="20px" version="1.1" style="shape-rendering:geometricPrecision; text-rendering:geometricPrecision; image-rendering:optimizeQuality; fill-rule:evenodd; clip-rule:evenodd"
viewBox="0 0 29 20"
 xmlns:xlink="http://www.w3.org/1999/xlink">
 <defs>
  <style type="text/css">
   <![CDATA[
    .fil0 {fill:#FEFEFE}
   ]]>
  </style>
 </defs>
 <g id="Layer_x0020_1">
  <metadata id="CorelCorpID_0Corel-Layer"/>
  <path class="fil0" d="M4 17c-1,-1 -2,-1 -3,-4 -1,-2 0,-4 1,-5 4,-8 23,-9 25,0 1,7 -8,12 -15,11 -3,0 -6,-3 -6,-6 0,-4 5,-6 8,-5 -3,1 -3,1 -4,1l0 6 4 0 0 -6c0,0 1,0 2,1l0 5 1 0c-1,0 -1,0 -2,1 -1,0 -2,0 -2,0 4,1 6,-2 5,-5 0,-1 -1,-1 -1,-2 2,1 2,3 2,6l1 0 0 -11 -4 0 0 4 -2 0 0 -4 -4 0c0,5 0,4 -2,4 -3,2 -5,5 -3,8 4,5 15,5 20,1 1,-1 3,-2 3,-4 1,-2 1,-4 0,-6 -5,-8 -23,-10 -27,0 -2,4 0,9 3,10z"/>
 </g>
</svg>
